<?xml version="1.0" standalone="no"?>
<!DOCTYPE svg PUBLIC "-//W3C//DTD SVG 20010904//EN"
 "http://www.w3.org/TR/2001/REC-SVG-20010904/DTD/svg10.dtd">
<svg version="1.0" xmlns="http://www.w3.org/2000/svg"
 width="512.000000pt" height="512.000000pt" viewBox="0 0 512.000000 512.000000"
 preserveAspectRatio="xMidYMid meet">

<g transform="translate(0.000000,512.000000) scale(0.100000,-0.100000)"
 stroke="none">
<path d="M2455 5110 c-60 -13 -124 -38 -172 -66 -24 -14 -204 -159 -401 -322
l-357 -297 -475 -5 -475 -5 -56 -26 c-79 -37 -133 -90 -171 -167 l-33 -67 -5
-371 -5 -371 -135 -111 c-80 -67 -142 -126 -152 -147 -18 -33 -18 -103 -16
-1377 l3 -1343 27 -69 c71 -182 217 -310 401 -351 65 -14 283 -15 2162 -13
l2090 3 67 26 c164 64 277 179 340 345 l23 59 3 1340 c2 1215 1 1343 -14 1376
-11 25 -59 72 -154 150 l-138 114 -4 370 -3 370 -33 67 c-38 77 -92 130 -171
167 l-56 26 -475 5 -475 5 -357 297 c-196 163 -376 308 -401 322 -102 60 -274
90 -382 66z m212 -313 c17 -9 129 -98 248 -197 l217 -180 -572 0 -572 0 214
176 c117 97 219 181 225 187 50 38 178 46 240 14z m1827 -693 c14 -14 16 -83
16 -608 l0 -593 -899 -746 c-495 -411 -917 -757 -938 -769 -49 -29 -170 -32
-220 -6 -17 10 -390 316 -830 680 -439 365 -846 703 -906 752 l-107 89 0 593
c0 525 2 594 16 608 14 14 203 16 1934 16 1731 0 1920 -2 1934 -16z m-3401
-1991 c400 -333 727 -609 725 -613 -3 -9 -1472 -1018 -1494 -1027 -6 -2 -14 6
-18 19 -3 13 -6 531 -6 1151 l0 1129 33 -28 c17 -15 360 -299 760 -631z m3722
-1611 c-4 -21 -11 -32 -18 -29 -10 4 -423 286 -1349 921 -82 55 -147 105 -145
110 2 6 343 292 758 636 l754 626 3 -1116 c1 -613 0 -1130 -3 -1148z m-2666
734 c162 -135 248 -171 411 -171 164 0 249 36 413 173 l78 64 97 -66 c53 -37
381 -261 728 -499 l630 -432 -967 -3 c-532 -1 -1408 -1 -1946 0 l-978 3 700
479 c385 264 711 487 725 497 14 10 27 19 29 19 1 0 37 -29 80 -64z"/>
<path d="M1400 3602 c-107 -53 -107 -211 0 -264 32 -17 90 -18 775 -18 825 0
784 -3 832 69 48 71 20 175 -57 213 -32 17 -90 18 -775 18 -685 0 -743 -1
-775 -18z"/>
<path d="M1400 3002 c-107 -53 -107 -211 0 -264 33 -17 109 -18 1160 -18 1255
0 1168 -5 1217 69 48 71 20 175 -57 213 -33 17 -109 18 -1160 18 -1051 0
-1127 -1 -1160 -18z"/>
</g>
</svg>
