<?xml version="1.0" standalone="no"?>
<!DOCTYPE svg PUBLIC "-//W3C//DTD SVG 20010904//EN"
 "http://www.w3.org/TR/2001/REC-SVG-20010904/DTD/svg10.dtd">
<svg version="1.0" xmlns="http://www.w3.org/2000/svg"
 width="512.000000pt" height="512.000000pt" viewBox="0 0 512.000000 512.000000"
 preserveAspectRatio="xMidYMid meet">

<g transform="translate(0.000000,512.000000) scale(0.100000,-0.100000)"
 stroke="none">
<path d="M2524 5110 c-12 -4 -31 -21 -43 -36 -21 -27 -22 -34 -19 -276 l3
-248 28 -27 c38 -38 96 -38 134 0 l28 27 0 256 0 256 -33 29 c-33 29 -60 35
-98 19z"/>
<path d="M3645 4695 c-16 -7 -126 -109 -242 -227 -202 -203 -213 -216 -213
-252 0 -55 43 -96 101 -96 42 0 45 2 252 208 115 114 215 219 223 234 21 41
17 74 -13 107 -34 36 -68 44 -108 26z"/>
<path d="M1391 4663 c-29 -27 -35 -43 -32 -92 1 -31 379 -416 429 -438 67 -28
132 18 132 94 0 36 -11 49 -213 250 -200 201 -215 213 -250 213 -26 0 -45 -8
-66 -27z"/>
<path d="M2495 4316 c-32 -32 -40 -69 -25 -107 17 -39 46 -59 90 -59 44 0 73
20 90 59 26 64 -20 131 -90 131 -30 0 -47 -6 -65 -24z"/>
<path d="M2471 3928 c-296 -25 -572 -219 -704 -495 -19 -40 -37 -82 -40 -94
-5 -20 -9 -19 -58 24 -115 101 -237 147 -405 154 -159 7 -235 -6 -353 -63
-172 -84 -297 -243 -336 -429 -21 -101 -21 -595 0 -697 30 -145 120 -286 233
-369 l61 -44 0 -58 c1 -38 -3 -59 -11 -61 -7 -3 -98 -25 -203 -50 -251 -60
-326 -96 -446 -215 -73 -72 -94 -101 -132 -181 -67 -136 -79 -211 -75 -453 l3
-197 28 -27 27 -28 426 -3 426 -3 -6 -31 c-3 -17 -6 -115 -6 -219 l0 -188
-320 -3 -320 -3 -27 -28 c-38 -38 -38 -96 0 -134 l27 -28 2300 0 2300 0 27 28
c38 38 38 96 0 134 l-27 28 -320 3 -320 3 0 188 c0 104 -3 202 -6 219 l-6 31
426 3 426 3 27 28 28 27 3 197 c4 242 -8 317 -75 453 -38 80 -59 109 -132 181
-120 119 -195 155 -446 215 -104 25 -196 47 -202 50 -9 2 -13 23 -12 61 l0 58
61 44 c112 82 204 227 233 369 21 102 21 596 0 697 -39 186 -164 345 -336 429
-118 57 -194 70 -353 63 -168 -7 -290 -53 -405 -154 -49 -43 -53 -44 -58 -24
-3 12 -21 54 -40 94 -94 195 -272 363 -468 438 -138 53 -259 70 -414 57z m247
-214 c185 -39 358 -177 446 -354 48 -98 76 -200 76 -282 l0 -48 -43 0 c-58 0
-135 24 -176 54 -19 14 -51 48 -72 77 l-39 51 41 46 c23 26 48 60 56 75 36 70
-34 153 -113 133 -14 -4 -68 -50 -120 -102 -220 -221 -488 -334 -791 -334
l-103 0 0 48 c0 82 28 184 76 281 102 206 301 345 529 369 83 9 135 6 233 -14z
m-1358 -408 c112 -29 217 -112 266 -207 29 -57 54 -149 54 -197 l0 -34 -52 7
c-129 15 -176 30 -300 91 -48 24 -97 44 -108 44 -11 0 -60 -20 -108 -44 -124
-61 -171 -76 -299 -91 l-53 -7 0 34 c0 48 25 140 54 197 48 93 154 177 261
206 66 18 217 18 285 1z m2680 0 c112 -29 217 -112 266 -207 29 -57 54 -149
54 -197 l0 -34 -52 7 c-129 15 -176 30 -300 91 -48 24 -97 44 -108 44 -11 0
-60 -20 -108 -44 -124 -61 -171 -76 -299 -91 l-53 -7 0 34 c0 48 25 140 54
197 48 93 154 177 261 206 66 18 217 18 285 1z m-1190 -336 c91 -91 208 -140
333 -140 l59 0 -5 -212 c-5 -238 -13 -274 -83 -409 -26 -50 -63 -98 -114 -149
-85 -84 -154 -129 -262 -168 -67 -24 -86 -27 -218 -27 -132 0 -151 3 -218 27
-209 76 -365 238 -435 452 -16 50 -20 98 -24 272 l-5 211 148 6 c156 5 245 20
372 62 93 31 239 102 307 149 l50 35 20 -27 c11 -15 45 -52 75 -82z m-1572
-204 c93 -47 292 -96 389 -96 16 0 18 -210 3 -291 -31 -163 -152 -294 -310
-335 -71 -18 -207 -18 -280 1 -159 41 -279 170 -310 334 -15 81 -13 291 3 291
97 0 316 55 397 100 45 25 52 25 108 -4z m2680 0 c93 -47 292 -96 389 -96 16
0 18 -210 3 -291 -31 -162 -153 -293 -310 -334 -73 -19 -209 -19 -280 -1 -152
40 -264 155 -305 313 -20 75 -21 313 -2 313 97 0 316 55 397 100 45 25 52 25
108 -4z m-2036 -832 c34 -36 90 -86 125 -111 l63 -45 0 -69 c0 -38 -2 -69 -4
-69 -2 0 -34 14 -70 31 -37 17 -139 49 -229 71 -89 21 -179 44 -199 49 l-38
10 0 59 c0 33 4 60 8 60 18 0 143 112 173 156 l32 46 38 -60 c22 -34 67 -91
101 -128z m1485 96 c17 -20 56 -54 87 -75 l55 -40 1 -57 0 -57 -37 -10 c-21
-5 -111 -28 -200 -49 -90 -22 -192 -54 -229 -71 -36 -17 -68 -31 -70 -31 -2 0
-4 31 -4 69 l0 69 64 46 c77 55 181 166 227 242 l34 56 20 -28 c11 -15 34 -44
52 -64z m-2037 -249 c0 -80 -118 -531 -145 -553 -11 -9 -21 -15 -22 -14 -1 1
-31 116 -67 257 -42 161 -66 275 -66 310 l0 54 150 0 150 0 0 -54z m2680 0 c0
-35 -24 -149 -66 -310 -36 -141 -66 -256 -67 -258 -1 -1 -12 6 -23 15 -27 22
-144 472 -144 553 l0 54 150 0 150 0 0 -54z m-1665 -106 c35 -8 109 -14 175
-14 66 0 140 6 175 14 33 8 63 15 68 15 4 0 7 -48 7 -107 0 -105 -3 -120 -122
-585 -68 -263 -125 -478 -128 -478 -3 0 -60 217 -128 483 -118 465 -123 486
-122 585 0 56 3 102 8 102 4 0 34 -7 67 -15z m-1417 -357 c40 -156 72 -287 72
-292 0 -5 -19 -49 -42 -97 l-43 -89 -379 0 -378 0 4 153 c4 133 8 160 31 220
48 123 127 211 240 269 43 21 336 104 417 117 3 1 38 -126 78 -281z m760 237
c138 -32 206 -52 192 -55 -15 -3 -389 -100 -409 -106 -20 -6 -22 -4 -18 12 4
10 16 58 28 107 17 70 25 87 38 83 9 -3 85 -21 169 -41z m1875 -57 c14 -57 24
-104 23 -106 -2 -1 -41 8 -87 21 -46 14 -138 37 -204 52 -66 15 -124 31 -128
35 -4 4 11 12 35 19 47 12 319 79 329 80 4 1 18 -45 32 -101z m819 53 c182
-44 256 -76 331 -141 61 -54 101 -113 134 -197 23 -60 27 -87 31 -220 l4 -153
-378 0 -379 0 -42 89 c-24 48 -43 92 -43 97 0 5 32 136 72 291 59 229 75 282
88 279 8 -3 90 -23 182 -45z m-2273 -248 c5 -21 55 -216 111 -433 55 -217 103
-404 106 -415 3 -11 -168 153 -380 365 -212 211 -382 388 -378 392 8 8 484
126 514 127 12 1 20 -11 27 -36z m1103 -24 c139 -33 256 -63 260 -67 4 -4
-165 -181 -377 -392 l-385 -384 86 334 c129 509 146 570 155 570 5 0 122 -27
261 -61z m-1392 -624 l455 -455 -608 0 -607 0 0 189 c0 262 23 369 111 518 31
52 170 203 187 203 4 0 212 -205 462 -455z m1942 382 c78 -78 125 -149 165
-247 41 -102 53 -194 53 -401 l0 -189 -607 0 -608 0 455 455 c250 250 458 455
462 455 4 0 40 -33 80 -73z"/>
</g>
</svg>
