<?xml version="1.0" standalone="no"?>
<!DOCTYPE svg PUBLIC "-//W3C//DTD SVG 20010904//EN"
 "http://www.w3.org/TR/2001/REC-SVG-20010904/DTD/svg10.dtd">
<svg version="1.0" xmlns="http://www.w3.org/2000/svg"
 width="512.000000pt" height="512.000000pt" viewBox="0 0 512.000000 512.000000"
 preserveAspectRatio="xMidYMid meet">

<g transform="translate(0.000000,512.000000) scale(0.100000,-0.100000)"
 stroke="none">
<path d="M1600 5114 c-464 -55 -788 -204 -1088 -502 -506 -503 -650 -1259
-366 -1922 190 -444 571 -799 1029 -960 563 -198 1194 -93 1656 276 l66 52
205 -206 206 -207 -20 -55 c-42 -115 -31 -243 29 -348 16 -30 232 -252 587
-607 612 -611 604 -604 742 -627 269 -45 514 201 465 468 -26 143 -22 138
-625 740 -303 304 -569 563 -591 576 -104 64 -247 80 -360 40 l-60 -21 -207
206 -207 207 45 55 c306 380 440 896 358 1376 -126 740 -715 1327 -1449 1441
-92 14 -351 26 -415 18z m360 -245 c429 -58 832 -325 1071 -709 322 -520 295
-1192 -67 -1685 -427 -583 -1214 -776 -1868 -460 -368 177 -651 499 -784 890
-124 365 -96 792 75 1140 205 417 580 708 1045 810 153 33 344 39 528 14z
m1784 -3259 c27 -13 223 -202 583 -562 461 -463 543 -549 552 -583 16 -58 14
-75 -14 -131 -46 -94 -156 -125 -247 -71 -24 14 -282 265 -575 559 -480 482
-532 537 -543 578 -23 86 14 170 92 209 54 26 100 27 152 1z"/>
<path d="M1576 4179 c-419 -58 -798 -302 -1048 -676 -79 -118 -79 -141 1 -260
232 -343 562 -572 944 -655 147 -32 398 -31 547 1 274 59 521 194 726 396 97
96 196 219 250 312 50 84 31 135 -124 329 -223 279 -539 474 -874 539 -101 20
-328 27 -422 14z m4 -248 c-193 -61 -340 -212 -395 -406 -23 -79 -23 -221 0
-300 56 -196 201 -344 395 -406 73 -24 53 -23 -61 0 -125 26 -191 50 -308 111
-167 88 -302 202 -429 363 l-62 79 32 45 c54 75 169 198 238 255 162 133 327
214 525 258 103 23 135 24 65 1z m391 0 c298 -62 559 -235 761 -504 43 -58 46
-49 -47 -165 -183 -227 -445 -389 -723 -447 -108 -22 -117 -18 -27 13 298 101
461 429 361 727 -62 183 -199 316 -386 376 -73 24 -53 23 61 0z m-80 -243 c69
-32 129 -90 166 -160 25 -48 28 -63 28 -153 0 -87 -3 -106 -25 -149 -32 -63
-103 -134 -166 -166 -43 -22 -62 -25 -149 -25 -90 0 -105 3 -153 28 -117 62
-184 166 -190 297 -7 151 73 276 216 337 79 33 192 29 273 -9z"/>
</g>
</svg>
